<svg version="1" xmlns="http://www.w3.org/2000/svg" width="260" height="260" viewBox="0 0 195.000000 195.000000"><path d="M0 97.5V195h195V0H0v97.5zm103.9-67.7c1.9.9 4.3 3.3 5.2 5.2 1 1.9 7.7 19.7 14.9 39.4 10.7 29.3 12.9 36.1 11.8 37.1-2.2 2-13.8 5.9-14.7 4.9-.4-.5-2-4.4-3.5-8.6l-2.8-7.8H80.3l-2.8 7.7c-1.5 4.3-3.1 8.2-3.6 8.7-.9 1-12.5-2.9-14.7-4.9-1.1-1 1.1-7.8 11.8-37.1C78.2 54.7 84.9 36.9 85.9 35c2-3.9 7.1-7 11.6-7 1.7 0 4.5.8 6.4 1.8zM139.5 152v8.5h-84l-.3-7.4c-.2-4.1-.1-8 .2-8.8.5-1.1 7.9-1.3 42.3-1.1l41.8.3v8.5z"/><path d="M91.9 65.7c-2.8 8.7-5.4 16.4-5.7 17-.3 1 2.4 1.3 11.3 1.3s11.6-.3 11.3-1.3c-.3-.6-2.9-8.3-5.7-17-2.9-8.6-5.4-15.7-5.6-15.7-.2 0-2.7 7.1-5.6 15.7z"/></svg>